<svg xmlns="http://www.w3.org/2000/svg" viewBox="0 0 56 60" width="100%" height="100%">
  <defs>
    <linearGradient id="canopyGrad" x1="0%" y1="0%" x2="100%" y2="100%">
      <stop offset="0%" stop-color="#2D6A4F" />
      <stop offset="100%" stop-color="#1B4332" />
    </linearGradient>
  </defs>

  <!-- Icon Container (Deep Canopy Squircle with 12px organic radius) -->
  <rect x="4" y="6" width="48" height="48" rx="12" fill="url(#canopyGrad)" />

  <!-- Microgrid Outer Hexagon Ring -->
  <polygon points="28,13 42.7,21.5 42.7,38.5 28,47 13.3,38.5 13.3,21.5" 
           fill="none" stroke="#52B788" stroke-width="2" stroke-opacity="0.7" stroke-linejoin="round" />

  <!-- Solar Rays / Grid Spokes -->
  <line x1="28" y1="13" x2="28" y2="18" stroke="#E9C46A" stroke-width="2" stroke-linecap="round" />
  <line x1="42.7" y1="21.5" x2="38" y2="24" stroke="#E9C46A" stroke-width="2" stroke-linecap="round" />
  <line x1="13.3" y1="21.5" x2="18" y2="24" stroke="#E9C46A" stroke-width="2" stroke-linecap="round" />

  <!-- Helio Sun Core -->
  <circle cx="28" cy="27" r="7" fill="#E9C46A" />

  <!-- Vibrant Leaf Energy Wave -->
  <path d="M13.3,38.5 C19,32 27,34 42.7,26 C41,38 33,45 28,47 C21,45 15,41 13.3,38.5 Z" 
        fill="#52B788" />

  <!-- Grid Nodes (Representing Solar Hubs) -->
  <circle cx="28" cy="13" r="2.5" fill="#E9C46A" />
  <circle cx="42.7" cy="21.5" r="2.5" fill="#52B788" />
  <circle cx="13.3" cy="38.5" r="2.5" fill="#FFFFFF" />
  <circle cx="28" cy="47" r="2.5" fill="#52B788" />
</svg>